<svg xmlns="http://www.w3.org/2000/svg" height="100%" width="100%" viewBox="0 0 459.322 95.21" xmlns:v="https://vecta.io/nano"><path fill="#F5751A" d="M424.442 77.666h4v4.03h-4zm19.43-17.7v21.75h-4.03v-21.56h-4.6v21.55h-4v-25.58h8.8a3.84 3.84 0 0 1 3.83 3.83zm15.45 17.7v4.03h-8.8c-2.1 0-3.83-1.72-3.83-3.83v-21.74h4v21.55h8.62zm-161.98-22.4c2.13 1.42 3.43 3.82 3.43 6.34v12.94c0 3.95-3.23 7.18-7.18 7.18h-16.5v-7.57h16.1v-12.55l-12.75-8.48a7.486 7.486 0 0 1-3.36-6.27v-5.93c0-3.95 3.17-7.18 7.18-7.18h16.5v7.57h-16.17v5.56l12.73 8.4zm32.48-13.97h-8.1v40.43h-7.57v-40.43h-8.1v-7.57h23.74v7.57zm28.97-.4v33.64c0 3.95-3.23 7.18-7.18 7.18h-9.32a7.17 7.17 0 0 1-7.18-7.18v-33.63c0-3.95 3.17-7.18 7.18-7.18h9.32a7.21 7.21 0 0 1 7.18 7.18zm-7.57.4h-8.6v32.86h8.6zm20.37 40.42h-7.5v-48h16.5c3.95 0 7.18 3.23 7.18 7.18v6.02c0 2.46-1.23 4.8-3.3 6.15l-2.53 1.7 2.52 1.62a7.38 7.38 0 0 1 3.3 6.15v19.2h-7.57v-19.1l-5.05-3.36-3.56 2.26v20.18zm0-29.24l8.6-5.63v-5.56h-8.6v11.2zm28.98-11.2v7.25h8.1v7.57h-8.1v18.05h16.17v7.57h-16.5a7.17 7.17 0 0 1-7.18-7.18v-33.63c0-3.95 3.17-7.18 7.18-7.18h16.5v7.57h-16.16z"/><g fill="#2F86DE"><path d="M69.542 88.066c-1.63 1.1-3.34 2.1-5.15 2.93-1.8.9-3.67 1.57-5.6 2.18a46.78 46.78 0 0 1-11.96 2c-4.08.15-8.18-.2-12.2-1a59.49 59.49 0 0 1-5.97-1.55c-.98-.3-1.95-.68-2.93-1.06l-1.46-.6c-.5-.22-.94-.4-1.55-.73l-2.73-1.4 1.22-4.25c.1-.34.18-.72.27-1.08.16-.74.33-1.48.45-2.25a70 70 0 0 0 .67-4.64c.33-3.14.5-6.32.55-9.53l.01-2.4-.05-2.42c0-1.62-.13-3.23-.2-4.85-.06-1.62-.26-3.24-.34-4.87l-.63-6.62 1.05-.74a7.66 7.66 0 0 1 .75-.47c.23-.13.45-.25.68-.36.45-.22.9-.43 1.36-.6a19.94 19.94 0 0 1 2.8-.83c1.9-.4 3.83-.5 5.7-.25 1.87.23 3.66.77 5.28 1.55 1.64.76 3.12 1.77 4.43 2.9a26.31 26.31 0 0 0-4.92-1.35c-1.64-.28-3.27-.3-4.84-.13s-3.07.6-4.46 1.18c-.7.3-1.37.65-2 1.04a20.58 20.58 0 0 0-.91.61c-.14.1-.28.2-.4.32-.12.1-.3.24-.3.28l.88-2.46a164.14 164.14 0 0 1 1.31 4.96c.37 1.67.74 3.35 1.03 5.05.58 3.4 1 6.83 1.17 10.3.15 3.47.14 6.97-.2 10.47-.18 1.75-.38 3.5-.74 5.27-.16.88-.36 1.76-.58 2.65-.12.45-.22.9-.36 1.35-.14.48-.25.86-.48 1.5l-1.77-4.73a16.28 16.28 0 0 0 1.06.55c.4.2.8.38 1.2.56a45.92 45.92 0 0 0 2.48 1.02c1.67.67 3.4 1.24 5.14 1.75 3.5 1.04 7.08 1.74 10.73 2.2a64.33 64.33 0 0 0 11.12.28c3.8-.24 7.58-.85 11.42-1.72z"/><path d="M69.542 88.066c-2.63-1.88-4.33-4.47-5.6-7.14-1.25-2.7-2.02-5.57-2.34-8.5s-.2-5.9.47-8.8c.7-2.9 1.82-5.77 4-8.16 1.04 3.04 1.6 5.7 2.14 8.34l1.16 7.8.5 7.87c.04 2.7.03 5.42-.34 8.6zm-44.9-34.78c-1.07 1.38-2.66 2.54-4.52 3.05-1.85.56-3.87.54-5.78.15-3.84-.83-7.32-3.1-9.84-6.2-1.28-1.54-2.32-3.3-3.1-5.2-.75-1.9-1.2-3.94-1.36-6a21.84 21.84 0 0 1 .5-6.18c.5-2.03 1.25-4 2.3-5.77 2.08-3.57 5.15-6.55 8.85-8.44 1.84-.97 3.85-1.62 5.92-1.96 2.07-.32 4.2-.32 6.2.06 4.04.7 7.64 2.7 10.35 5.42 2.7 2.7 4.54 6.23 4.82 9.8-2.02-2.94-4.53-5.1-7.3-6.6-2.74-1.5-5.74-2.25-8.56-2.27-2.83-.03-5.44.77-7.8 2.17-1.18.7-2.26 1.57-3.25 2.54a18.68 18.68 0 0 0-2.57 3.24c-2.94 4.63-3.26 10.8-.35 15.88 1.43 2.53 3.58 4.8 6.27 6.2 2.68 1.4 6.04 1.8 9.2.12z"/><path d="M27.362 21.996a13.12 13.12 0 0 1-.63-4.62c.08-1.6.43-3.2.97-4.74a19.53 19.53 0 0 1 2.32-4.37c.97-1.36 2.14-2.6 3.44-3.7a20.56 20.56 0 0 1 4.39-2.75c1.62-.73 3.3-1.2 5-1.52 1.72-.3 3.46-.34 5.18-.26 1.72.12 3.4.44 5.06.88a29.87 29.87 0 0 1 4.73 1.88c1.5.8 2.92 1.72 4.24 2.78 2.64 2.15 4.77 4.77 6.33 7.64 3.1 5.73 4.08 12.3 2.77 18.24-1.98-5.72-4.47-10.8-7.9-14.82a35.78 35.78 0 0 0-2.69-2.8c-.97-.84-1.92-1.62-2.96-2.3-2.08-1.36-4.34-2.43-6.7-3.1-2.35-.68-4.77-.95-7.15-.8-1.18.1-2.37.3-3.5.6-1.12.35-2.26.8-3.35 1.36a22.61 22.61 0 0 0-3.14 2.1c-.97.83-1.92 1.74-2.76 2.77a21.37 21.37 0 0 0-2.22 3.42 24.23 24.23 0 0 0-1.46 4.11z"/><path d="M68.202 19.076c2.55-1.78 6.15-2.43 9.53-1.52 3.4.86 6.43 3.1 8.53 5.95s3.43 6.22 3.97 9.64c.56 3.43.42 6.85-.2 10.18-.72 3.76-2.6 7.06-5.06 9.68-1.2 1.28-2.76 2.54-4.36 3.43-1.64.88-3.36 1.53-5.12 1.86-3.5.72-7.18.32-10.27-1-3.1-1.3-5.74-3.37-7.53-5.95 2.9 1.2 5.74 1.93 8.5 2.1 2.74.17 5.3-.26 7.6-1.2 1.13-.48 2.2-1.07 3.1-1.77.95-.7 1.68-1.45 2.46-2.44 1.52-1.9 2.6-4.06 3.06-6.22 1.05-5.17.96-10.57-1.2-15.1-1.06-2.27-2.67-4.3-4.87-5.72-2.2-1.45-5-2.13-8.13-1.9zm-40.04 55.02c.6.47 1.44 1 2.2 1.5l2.44 1.42a54.46 54.46 0 0 0 5.17 2.46 46.71 46.71 0 0 0 5.49 1.88c1.88.55 3.82.86 5.8 1.13-1.95.38-3.96.72-6 .8-2.03.13-4.1.13-6.16-.01a57.17 57.17 0 0 1-6.2-.72l-3.1-.62-3.2-.87 3.54-6.98zm112.33-37.7c-.1.1-.12.25-.07.44.05.2.15.32.3.37l-.44 2.63-.67 3.48-.78 3.4-.7 2.4c-2.02-.6-4.17-1-6.43-1.26-2.27-.25-4.36-.13-6.3.33-1.92.47-3.5 1.42-4.77 2.85s-1.88 3.5-1.88 6.2c0 1.73.34 3.16 1.04 4.3.7 1.13 1.6 2.02 2.74 2.66 1.13.64 2.4 1.06 3.8 1.26a18.66 18.66 0 0 0 4.3.1 19.1 19.1 0 0 0 4.18-.81c1.33-.42 2.5-.92 3.48-1.52.3.54.58 1.27.85 2.18l.78 3 .67 3.4.44 3.4c-3.35 3.35-7.08 5.45-11.17 6.3s-8.28.34-12.57-1.48c-2.42-.7-4.45-1.7-6.1-3.03s-3-2.88-4.03-4.66-1.77-3.75-2.22-5.92c-.44-2.17-.67-4.44-.67-6.8a49.23 49.23 0 0 1 .7-8.28c.47-2.76 1.28-5.3 2.44-7.62s2.7-4.3 4.66-6 4.37-2.8 7.28-3.4c3.6-.74 7.18-.92 10.76-.55 3.55.36 7.02 1.24 10.37 2.62zm20.93-2.88l-.04 2.77-.04 3.33.04 4.3.26 5.58h.07-.3l.37.3a15.5 15.5 0 0 1 2.61-.22h2.55l2.46-.04c.8-.02 1.63-.14 2.46-.33l-.22-7.58c-.15-2.34-.1-4.84.15-7.5 1.93-.54 4.25-.8 6.95-.8s5.4.42 8.06 1.26l.63 23.74a315.04 315.04 0 0 1-.48 23.3l-7.9.63-4.18.18s-1.66-.06-2.1-.18l-1.7-.48-.04-4.6-.14-8.44-.04-4.5-4.62-.3c-1.36-.05-2.87.05-4.55.3l-.22 3.66-.15 3.73-.1 4.33-.1 5.36-8.17.4-4.73.15h-2.18s-.54-.1-.6-.18l-.07-13.76.07-3.8.15-6.55.2-7.84.26-7.62.22-5.8.15-2.55 15.06-.2zm50.3.3l8.62.18 8.62.33.1 4.03-.1 4c-.1 1.26-.27 2.36-.52 3.3s-.64 1.53-1.18 1.77l-4.5.15a107.1 107.1 0 0 1-4-.07l-4.25-.15-5.36-.22.22.3.04 2a5.78 5.78 0 0 1-.26 1.92c1.48.2 2.8.3 3.96.3h3.25l3.03.07c1 .05 2.13.22 3.37.52.3 1.1.45 2 .48 2.74.02.74-.01 1.47-.1 2.18l-.33 2.22a18.11 18.11 0 0 0-.2 2.77c-.44.25-1.2.4-2.25.44l-7.32.14c-1.26.05-2.26.15-3 .3-.15 1.43-.05 2.6.3 3.55.44.25 1.5.42 3.18.52l5.47.15 5.62-.07 3.55-.15.44 5.47.2 3.8-.04 2.66a9.96 9.96 0 0 1-.3 1.9l-.6.37-6.47.18h-5.73l-5.44-.07-5.58-.04-2.44-.04-3.88-.1-3.62-.26c-1.06-.12-1.6-.3-1.66-.55-.2-1.18-.3-2.65-.3-4.4l.15-5.36.3-5.25.15-4.07a243.99 243.99 0 0 0-.37-13.2 243.99 243.99 0 0 1-.37-13.2l.07-.37 9.54-.4 9.5-.25zm56.03 19.06l.04 1.92-.07 2.5-.15 2.55-.1 2.07c-.02.6-.01.94.04 1.04.05.15-.47.23-1.55.26l-4.03.04c-1.6 0-3.32-.02-5.14-.07l-4.8-.15.15 4.03.07 3.73-.1 6.77-.4 4.07-8.1-.04-4.92.1-2.8.15a6.63 6.63 0 0 1-1.7-.07c-.24-18.2-.06-29.78.1-34.8l.48-13.57.8-.3 28.92.37a10.39 10.39 0 0 1 .78.04l1.15.1a3.17 3.17 0 0 1 1.04.3c.3.15.47.32.52.52a95.68 95.68 0 0 1 .59 3.29 37.48 37.48 0 0 1 .41 3.62c.07 1.2.05 2.37-.07 3.48s-.43 2.1-.93 3l-15.24.15c-.15 1.28-.26-.5-.33.7a101.15 101.15 0 0 1-.26 3.4h15.38c.14.01.23.27.25.78z"/></g></svg>